<svg xmlns="http://www.w3.org/2000/svg" viewBox="0 0 100 100" fill-rule="evenodd"><g class="t-group-origins"><path d="M50.352 62.245c-18.277 0-33.147 14.87-33.147 33.148a1.5 1.5 0 0 0 1.5 1.5h63.296a1.5 1.5 0 0 0 1.5-1.5C83.5 77.115 68.63 62.245 50.352 62.245zM20.241 93.893c.784-15.93 13.99-28.648 30.11-28.648 16.121 0 29.327 12.719 30.111 28.648H20.241zm29.562-34.888c10.546 0 19.125-8.582 19.125-19.132 0-3.619-1.018-7.111-2.928-10.154V6.392a1.5 1.5 0 0 0-1.5-1.5h-29a1.5 1.5 0 0 0-1.5 1.5v22.741c-.052.057-.104.114-.147.18a19.049 19.049 0 0 0-3.179 10.56c0 10.55 8.581 19.132 19.129 19.132zM37 7.893h26v21H37v-21zm-1.21 24h28.031a16.062 16.062 0 0 1 2.107 7.98c0 8.896-7.233 16.132-16.125 16.132-8.894 0-16.129-7.236-16.129-16.132 0-2.817.731-5.554 2.116-7.98z" stroke-width="0.5" stroke="#009975" fill="#009975" stroke-width-old="0"></path><path d="M55.5 15.893H52v-3.5a1.5 1.5 0 0 0-3 0v3.5h-4.5a1.5 1.5 0 0 0 0 3H49v4.5a1.5 1.5 0 0 0 3 0v-4.5h3.5a1.5 1.5 0 0 0 0-3z" stroke-width="0.5" stroke="#009975" fill="#009975" stroke-width-old="0"></path></g></svg>
