<svg xmlns="http://www.w3.org/2000/svg" viewBox="0 0 100 100" fill-rule="evenodd"><g class="t-group-origins"><path d="M67.853 16.194c-8.024 0-14.924 4.909-17.852 11.882-2.93-6.973-9.833-11.882-17.861-11.882-10.673 0-19.357 8.681-19.357 19.352 0 4.118 1.33 8.088 3.88 11.525L48.83 87.243c.285.355.715.562 1.171.562h.001c.456 0 .887-.208 1.171-.564l32.863-41.184a1.89 1.89 0 0 0 .09-.125c2.023-3.152 3.093-6.744 3.093-10.386.001-10.671-8.688-19.352-19.366-19.352zm13.79 28.054L49.999 83.904 19.038 45.24c-2.13-2.873-3.256-6.225-3.256-9.694 0-9.017 7.338-16.352 16.357-16.352 9.022 0 16.362 7.335 16.362 16.352a1.5 1.5 0 1 0 3 0c0-9.017 7.335-16.352 16.352-16.352 9.024 0 16.367 7.335 16.367 16.352 0 3.043-.891 6.05-2.577 8.702z" stroke-width="0.5" stroke="#009975" fill="#009975" stroke-width-old="0"></path></g></svg>
