<?xml version="1.0" encoding="UTF-8"?> <svg xmlns="http://www.w3.org/2000/svg" viewBox="0 0 600.00 600.00" data-guides="{&quot;vertical&quot;:[],&quot;horizontal&quot;:[]}"><defs></defs><path fill="#225f35" stroke="none" fill-opacity="1" stroke-width="1" stroke-opacity="1" id="tSvga11cce3932" title="Path 1" d="M381.548 380C376.4093 389.6627 371.2707 399.3253 366.132 408.988C391.292 404.8747 416.452 400.7613 441.612 396.648C426.38 389.008 405.76 383.548 381.548 380ZM187.108 386.32C152.148 395.54 130 410.648 130 433.088C130.014 437.919 131.07 442.69 133.096 447.076C173.476 440.476 213.856 433.876 254.236 427.276C231.86 413.624 209.484 399.972 187.108 386.32ZM467.16 420C410.96 429.16 354.76 438.32 298.56 447.48C313.3813 464.3413 328.2027 481.2027 343.024 498.064C416.04 491.524 470 468.2 470 433.088C470 428.408 468.992 424.056 467.16 420ZM270.072 452.224C232.0987 458.4307 194.1253 464.6373 156.152 470.844C186.264 489.496 239.412 500 300 500C303.672 500 307.26 499.896 310.876 499.82C297.2747 483.9547 283.6733 468.0893 270.072 452.224Z"></path><path fill="#225f35" stroke="none" fill-opacity="1" stroke-width="1" stroke-opacity="1" id="tSvg77266c8155" title="Path 2" d="M300.008 100C234.809 100 181.312 153.332 181.312 218.384C181.312 243.392 189.261 266.688 202.681 285.844C228.3263 330.1773 253.9717 374.5107 279.617 418.844C279.7263 418.9867 279.8357 419.1293 279.945 419.272C282.981 423.236 285.944 426.364 289.424 428.664C292.904 430.968 297.225 432.344 301.465 431.92C309.937 431.072 315.125 425.088 320.049 418.416C320.1367 418.3013 320.2243 418.1867 320.312 418.072C348.624 369.884 376.936 321.696 405.248 273.508C405.264 273.4773 405.28 273.4467 405.296 273.416C407.288 269.816 408.76 266.152 410.008 262.584C415.733 248.55 418.68 233.54 418.688 218.384C418.688 153.332 365.208 100 300.008 100ZM300.008 168.18C328.292 168.18 350.368 190.216 350.368 218.38C350.368 246.552 328.292 268.58 300.008 268.58C271.72 268.58 249.633 246.548 249.633 218.38C249.633 190.22 271.724 168.18 300.008 168.18Z"></path></svg> 