<?xml version="1.0" encoding="UTF-8"?> <svg xmlns="http://www.w3.org/2000/svg" viewBox="0 0 600.00 600.00" data-guides="{&quot;vertical&quot;:[],&quot;horizontal&quot;:[]}"><defs></defs><path fill="#225f35" stroke="none" fill-opacity="1" stroke-width="1" stroke-opacity="1" id="tSvg178961e9348" title="Path 5" d="M372.615 100C324.205 100 275.795 100 227.385 100C215.348 100 203.804 104.789 195.293 113.313C186.782 121.838 182 133.399 182 145.455C182 248.485 182 351.515 182 454.545C182 466.601 186.782 478.162 195.293 486.687C203.804 495.211 215.348 500 227.385 500C275.795 500 324.205 500 372.615 500C384.652 500 396.196 495.211 404.707 486.687C413.218 478.162 418 466.601 418 454.545C418 351.515 418 248.485 418 145.455C418 133.399 413.218 121.838 404.707 113.313C396.196 104.789 384.652 100 372.615 100ZM300 481.818C284.932 481.818 272.769 469.636 272.769 454.545C272.769 439.455 284.932 427.273 300 427.273C315.068 427.273 327.231 439.455 327.231 454.545C327.231 469.636 315.068 481.818 300 481.818ZM381.692 409.091C327.2307 409.091 272.7693 409.091 218.308 409.091C218.308 324.2423 218.308 239.3937 218.308 154.545C272.7693 154.545 327.2307 154.545 381.692 154.545C381.692 239.3937 381.692 324.2423 381.692 409.091Z"></path></svg> 