<?xml version="1.0" encoding="UTF-8"?> <svg xmlns="http://www.w3.org/2000/svg" width="600" height="600" viewBox="0 0 600 600" fill="none"><rect width="600" height="600" fill="#E5CEC3"></rect><path fill-rule="evenodd" clip-rule="evenodd" d="M326.745 327.098C319.362 333.572 305.042 349.28 300.877 349.28C297.186 349.28 284.266 335.418 276.41 328.494L275.487 327.581C264.862 317.87 252.421 307.245 241.313 296.172H254.262C257.48 296.172 260.243 293.852 261.171 291.079L267.186 266.143L280.579 315.102C281.502 317.87 284.276 320.194 287.513 320.194C290.726 320.194 293.494 317.875 294.422 315.102L310.139 262.442L316.603 304.955C316.603 307.724 319.367 310.014 322.619 310.497C325.832 310.942 328.595 309.101 329.997 306.332L343.834 275.396L348.004 291.089C348.922 294.336 351.695 296.181 354.942 296.181H360.479C349.366 307.245 337.369 317.87 326.745 327.098Z" fill="#1C1C1C"></path><path fill-rule="evenodd" clip-rule="evenodd" d="M391.398 250.908C389.548 260.6 382.614 271.708 372.942 282.782H360.471L352.127 252.773C351.214 249.99 348.914 248.145 345.672 248.145C342.904 247.681 340.135 249.527 338.763 251.851L326.738 278.612L319.804 229.191C319.355 225.978 316.591 223.658 313.34 223.658C310.127 223.209 306.88 225.509 305.962 228.273L287.95 287.875L274.107 237.056C273.189 234.288 270.416 231.978 267.169 231.978C263.922 231.978 261.154 234.283 260.226 237.056L248.679 282.782H228.826C218.67 271.708 211.737 260.6 209.891 250.908C207.123 236.129 209.447 224.132 216.346 215.353C223.289 207.043 234.832 201.955 251.921 200.114C253.327 200.114 254.24 200.114 255.617 200.114C269.938 200.114 284.698 206.13 293.482 216.276C295.332 218.121 298.096 219.527 300.865 219.527C303.184 219.527 305.957 218.121 307.803 216.276C316.586 206.13 331.352 200.114 345.672 200.114C347.074 200.114 348.441 200.114 349.364 200.114C366.448 201.955 378.005 207.047 384.938 215.353C391.877 224.132 394.171 236.129 391.398 250.908Z" fill="#225F35"></path><path fill-rule="evenodd" clip-rule="evenodd" d="M462.521 197.794C445.432 188.551 417.723 262.918 414.945 269.378L414.505 270.291L415.423 269.847C422.327 269.847 427.415 271.697 429.744 275.379C432.507 281.36 429.261 290.149 420.482 300.774C413.099 309.557 401.547 319.713 387.226 329.864C388.627 328.492 390.029 327.096 391.396 325.729C400.624 316.486 408.959 308.166 414.94 300.319C424.202 289.231 426.971 282.312 423.724 277.679C421.878 273.983 418.182 273.543 413.094 275.379C378.921 288.782 322.121 346.026 299.94 384.369C277.797 346.026 221.437 288.787 186.819 275.379C181.726 273.538 178.04 273.983 176.194 277.679C172.947 282.308 175.711 289.231 184.973 300.319C190.949 308.166 199.738 316.486 208.522 325.729C209.889 327.096 211.285 328.492 212.662 329.864C198.342 319.713 187.268 309.562 179.407 300.774C170.657 290.149 167.41 281.36 170.657 275.379C172.498 271.693 177.556 269.847 184.494 269.847L185.412 270.291V269.378C182.2 262.914 154.925 188.551 137.397 197.794C135.546 198.717 132.304 201.944 135.077 211.182C138.764 224.131 161.868 310.939 172.493 323.888C174.339 326.656 176.629 328.946 179.402 330.797C206.676 352.051 244.536 368.213 262.993 397.303C280.082 405.164 292.112 402.85 299.935 392.684C307.796 402.85 319.792 405.164 336.886 397.303C355.85 368.213 393.237 352.056 420.477 330.797C423.246 328.946 425.569 326.661 427.893 323.888C438.044 310.934 461.139 224.131 464.835 211.182C467.613 201.949 464.845 198.722 462.521 197.794Z" fill="#1C1C1C"></path></svg> 