<?xml version="1.0" encoding="UTF-8"?> <svg xmlns="http://www.w3.org/2000/svg" width="600" height="600" viewBox="0 0 600 600" fill="none"><rect width="600" height="600" fill="#2CAAC0"></rect><path fill-rule="evenodd" clip-rule="evenodd" d="M293.494 271.604H301.688C307.307 271.604 311.396 275.699 311.396 280.826C311.396 285.953 307.307 290.041 301.688 290.041H297.069C298.621 284.93 295.56 276.218 293.494 271.604Z" fill="#1C1C1C"></path><path fill-rule="evenodd" clip-rule="evenodd" d="M243.373 290.034L244.904 210.239C247.97 209.217 256.678 206.643 269.452 206.129L287.868 270.083C291.448 277.736 294.001 287.46 292.47 289.504C292.47 289.504 292.47 290.034 291.962 290.034H243.373Z" fill="white"></path><path fill-rule="evenodd" clip-rule="evenodd" d="M260.768 314.567C260.768 359.597 260.238 404.091 258.199 449.105C257.177 471.631 296.582 471.631 297.604 449.105C299.643 408.71 300.157 397.455 300.157 357.044C301.693 357.044 303.732 357.044 305.777 357.044C305.777 397.455 306.29 408.71 307.821 449.105C308.843 471.631 348.232 471.631 347.205 449.105C345.166 404.097 344.652 359.597 344.652 314.567V228.634H349.763V305.897V308.439C349.763 314.08 354.868 318.677 361.023 318.677C367.156 318.677 372.283 314.08 372.283 308.439V235.789C369.195 205.621 332.878 205.621 331.342 205.621H274.046L291.444 267.017H301.682C309.86 267.017 315.993 273.144 315.993 280.819C315.993 287.996 309.86 294.123 301.682 294.123H260.763L260.768 314.567Z" fill="#1C1C1C"></path><path fill-rule="evenodd" clip-rule="evenodd" d="M302.709 134C322.147 134 337.495 148.332 337.495 166.234C337.495 184.125 322.141 198.467 302.709 198.467C283.78 198.467 267.917 184.125 267.917 166.234C267.922 148.332 283.785 134 302.709 134Z" fill="#1C1C1C"></path><path fill-rule="evenodd" clip-rule="evenodd" d="M238.244 290.035H236.708C233.642 290.035 231.597 289.018 230.067 287.995C227 284.929 227 281.332 227 280.31V231.208C227 230.683 228.531 219.932 239.791 212.776L238.244 290.035Z" fill="#1C1C1C"></path></svg> 