<?xml version="1.0" encoding="UTF-8"?> <svg xmlns="http://www.w3.org/2000/svg" width="793" height="500" viewBox="0 0 793 500" fill="none"><path d="M782.471 72.6332C786.276 68.1697 789.152 62.9912 790.929 57.4016C792.706 51.812 793.349 45.9238 792.821 40.0824C792.292 34.2409 790.602 28.5638 787.85 23.3842C785.098 18.2045 781.339 13.6265 776.794 9.91874C772.249 6.21098 767.01 3.4481 761.383 1.79217C755.756 0.13624 749.854 -0.379434 744.025 0.275462C738.197 0.930357 732.557 2.74261 727.438 5.6059C722.319 8.4692 717.823 12.3259 714.214 16.9497L410.642 388.76C401.957 385.646 392.514 385.341 383.647 387.888C374.779 390.434 366.937 395.704 361.229 402.951C355.52 410.198 352.234 419.057 351.836 428.273C351.438 437.49 353.947 446.599 359.009 454.312L375.809 480.039C379.598 485.839 384.702 490.664 390.706 494.122C396.71 497.579 403.444 499.572 410.363 499.938C417.282 500.305 424.19 499.034 430.525 496.229C436.861 493.425 442.446 489.166 446.826 483.798L782.471 72.6332ZM547.508 72.6332C551.313 68.1697 554.189 62.9912 555.966 57.4016C557.743 51.812 558.387 45.9238 557.858 40.0824C557.329 34.2409 555.639 28.5638 552.887 23.3842C550.135 18.2045 546.376 13.6265 541.831 9.91874C537.286 6.21098 532.047 3.4481 526.42 1.79217C520.793 0.13624 514.891 -0.379434 509.063 0.275462C503.234 0.930357 497.594 2.74261 492.475 5.6059C487.356 8.4692 482.86 12.3259 479.251 16.9497L177.735 386.293L77.5818 263.649C70.1087 254.883 59.4993 249.393 48.0269 248.354C36.5545 247.316 25.1318 250.812 16.2061 258.094C7.28037 265.375 1.56181 275.863 0.275622 287.31C-1.01057 298.756 2.23794 310.251 9.32513 319.332L143.606 483.798C147.738 488.859 152.944 492.938 158.847 495.739C164.749 498.54 171.201 499.993 177.735 499.993C184.268 499.993 190.72 498.54 196.623 495.739C202.526 492.938 207.731 488.859 211.863 483.798L547.508 72.6332Z" fill="white"></path></svg> 