<?xml version="1.0" encoding="UTF-8"?> <svg xmlns="http://www.w3.org/2000/svg" width="600" height="600" viewBox="0 0 600 600" fill="none"><rect width="600" height="600" fill="#225F35"></rect><path d="M186.244 312.448L287.935 413.625L256.251 445.304C228.154 472.898 183.181 472.898 155.069 445.304C126.977 417.202 126.977 371.732 155.069 343.619L186.244 312.448Z" fill="white"></path><path d="M256.251 155.073C228.154 126.976 182.668 126.976 155.069 155.073C126.977 183.185 126.977 228.656 155.069 256.255L343.636 445.304C371.733 472.899 416.685 472.899 444.803 445.304C472.9 417.202 472.9 371.732 444.803 343.619L256.251 155.073Z" fill="white"></path><path d="M413.122 287.923L312.464 186.762L343.64 155.073C371.736 126.976 416.688 126.976 444.806 155.073C472.903 183.185 472.903 228.656 444.806 256.255L413.122 287.923Z" fill="white"></path><path d="M431.514 432.017C426.916 436.609 419.261 436.609 415.156 432.017C410.051 426.907 410.051 419.749 415.156 415.152C419.261 410.56 426.916 410.56 431.514 415.152C436.106 419.749 436.106 426.907 431.514 432.017Z" fill="#225F35"></path><path d="M401.376 391.657C396.763 387.054 396.763 379.383 401.376 375.304C405.968 370.199 413.628 370.199 418.22 375.304C422.817 379.388 422.817 387.054 418.22 391.657C413.628 396.249 405.968 396.249 401.376 391.657Z" fill="#225F35"></path><path d="M388.089 351.798C383.491 347.195 383.491 339.524 388.089 334.932C392.68 330.33 400.357 330.33 404.949 334.932C409.546 339.524 409.546 347.195 404.949 351.798C400.357 356.395 392.68 356.395 388.089 351.798Z" fill="#225F35"></path><path d="M391.657 418.218C387.065 423.329 379.389 423.329 374.792 418.218C370.194 414.134 370.194 406.468 374.792 401.866C379.384 397.274 387.06 397.274 391.657 401.866C396.254 406.463 396.254 414.134 391.657 418.218Z" fill="#225F35"></path><path d="M361.519 378.362C356.905 373.77 356.905 366.612 361.519 361.497C366.116 356.905 373.771 356.905 378.368 361.497C382.965 366.612 382.965 373.765 378.368 378.362C373.771 383.467 366.116 383.467 361.519 378.362Z" fill="#225F35"></path><path d="M351.806 404.937C346.7 409.545 339.537 409.545 334.94 404.937C330.348 400.334 330.348 393.193 334.94 388.077C339.537 383.982 346.7 383.982 351.806 388.077C355.884 393.187 355.884 400.334 351.806 404.937Z" fill="#225F35"></path><path d="M274.643 348.731L251.657 325.734C230.691 304.79 230.691 272.085 251.657 251.649C271.585 231.202 304.798 231.202 325.218 251.649L348.739 274.646C368.662 295.082 368.662 328.295 348.739 348.731C327.79 369.168 295.085 369.168 274.643 348.731Z" fill="#225F35"></path><path d="M221.503 238.367C216.911 233.764 216.911 226.607 221.503 221.502C226.094 217.417 233.771 217.417 238.368 221.502C242.96 226.607 242.96 233.759 238.368 238.367C233.771 242.959 226.094 242.959 221.503 238.367Z" fill="#225F35"></path><path d="M208.216 198.513C203.618 193.905 203.618 186.245 208.216 181.647C212.807 177.039 219.976 177.039 225.081 181.647C229.673 186.239 229.673 193.905 225.081 198.513C219.976 203.105 212.807 203.105 208.216 198.513Z" fill="#225F35"></path><path d="M211.785 264.926C207.193 270.036 199.533 270.036 194.941 265.434C190.349 260.329 190.349 253.171 194.941 248.568C199.533 243.463 207.193 243.463 211.785 248.568C216.398 253.176 216.398 260.329 211.785 264.926Z" fill="#225F35"></path><path d="M181.65 225.078C177.058 220.481 177.058 212.815 181.65 208.72C186.242 203.615 193.902 203.615 198.516 208.72C202.6 212.815 202.6 220.476 198.516 225.078C193.897 229.675 186.242 229.675 181.65 225.078Z" fill="#225F35"></path><path d="M168.358 185.225C163.253 180.633 163.253 172.951 168.358 168.359C172.95 163.767 180.119 163.767 185.224 168.359C189.324 172.951 189.324 180.633 185.224 185.225C180.119 189.816 172.955 189.816 168.358 185.225Z" fill="#225F35"></path><path d="M248.574 194.933C252.679 190.331 260.334 190.331 264.932 194.933C269.524 200.049 269.524 207.191 264.932 211.788C260.34 216.391 252.679 216.391 248.574 211.788C243.469 207.191 243.469 200.044 248.574 194.933Z" fill="#225F35"></path></svg> 