<?xml version="1.0" encoding="UTF-8"?> <svg xmlns="http://www.w3.org/2000/svg" viewBox="0 0 600.00 600.00" data-guides="{&quot;vertical&quot;:[],&quot;horizontal&quot;:[]}"><defs></defs><path fill="#225f35" stroke="none" fill-opacity="1" stroke-width="1" stroke-opacity="1" id="tSvgd74b72490c" title="Path 3" d="M500 266.667C500 222.464 482.441 180.072 451.185 148.816C419.929 117.559 377.536 100 333.334 100C289.131 100 246.739 117.559 215.483 148.816C184.227 180.072 166.667 222.464 166.667 266.667C166.649 287.734 170.666 308.61 178.5 328.167C179.107 329.702 180.164 331.017 181.532 331.939C182.901 332.862 184.517 333.348 186.167 333.333C200.556 333.333 214.945 333.333 229.334 333.333C241.546 333.33 253.489 336.914 263.682 343.64C273.875 350.366 281.867 359.938 286.667 371.167C289.357 377.411 290.446 384.228 289.834 391C289.742 392.149 289.889 393.305 290.266 394.394C290.643 395.483 291.242 396.483 292.026 397.328C292.809 398.174 293.759 398.848 294.816 399.308C295.873 399.768 297.014 400.004 298.167 400C318.2227 400 338.2783 400 358.334 400C364.802 400 371.182 401.506 376.968 404.399C382.753 407.292 387.786 411.492 391.667 416.667C392.83 418.121 394.438 419.154 396.245 419.605C398.052 420.057 399.957 419.903 401.667 419.167C431.038 405.964 455.956 384.535 473.406 357.472C490.857 330.408 500.094 298.869 500 266.667ZM316.667 275C316.667 241.6667 316.667 208.3333 316.667 175C316.667 170.58 318.423 166.34 321.549 163.215C324.674 160.089 328.913 158.333 333.334 158.333C337.754 158.333 341.993 160.089 345.119 163.215C348.244 166.34 350 170.58 350 175C350 200 350 225 350 250C350 252.21 350.878 254.33 352.441 255.893C354.004 257.455 356.124 258.333 358.334 258.333C372.2227 258.333 386.1113 258.333 400 258.333C404.421 258.333 408.66 260.089 411.786 263.215C414.911 266.34 416.667 270.58 416.667 275C416.667 279.42 414.911 283.659 411.786 286.785C408.66 289.911 404.421 291.667 400 291.667C377.778 291.667 355.556 291.667 333.334 291.667C328.913 291.667 324.674 289.911 321.549 286.785C318.423 283.659 316.667 279.42 316.667 275Z"></path><path fill="#225f35" stroke="none" fill-opacity="1" stroke-width="1" stroke-opacity="1" id="tSvg11f6a71602a" title="Path 4" d="M206.333 425C204.855 425.187 203.353 425.058 201.929 424.62C200.504 424.182 199.189 423.446 198.071 422.461C196.953 421.475 196.057 420.263 195.444 418.905C194.83 417.547 194.513 416.073 194.513 414.583C194.513 413.093 194.83 411.619 195.444 410.261C196.057 408.903 196.953 407.691 198.071 406.705C199.189 405.72 200.504 404.984 201.929 404.546C203.353 404.108 204.855 403.979 206.333 404.166C220.333 404.166 234.333 404.166 248.333 404.166C251.084 404.164 253.792 403.481 256.214 402.178C258.637 400.875 260.7 398.992 262.218 396.699C263.736 394.405 264.663 391.77 264.916 389.031C265.169 386.292 264.74 383.533 263.667 381C260.811 374.261 256.03 368.515 249.922 364.483C243.814 360.45 236.652 358.311 229.333 358.333C205.6663 358.333 181.9997 358.333 158.333 358.333C156.123 358.333 154.004 359.211 152.441 360.774C150.878 362.337 150 364.456 150 366.666C150 402.7773 150 438.8887 150 475C150 477.21 150.878 479.329 152.441 480.892C154.004 482.455 156.123 483.333 158.333 483.333C218.111 483.333 277.889 483.333 337.667 483.333C342.569 483.333 347.424 482.367 351.954 480.491C356.483 478.615 360.599 475.865 364.065 472.398C367.532 468.932 370.282 464.816 372.158 460.287C374.034 455.757 375 450.902 375 446C375 444.5553 375 443.1107 375 441.666C375 437.246 373.244 433.007 370.118 429.881C366.993 426.756 362.754 425 358.333 425C307.6663 425 256.9997 425 206.333 425ZM133.333 362.5C133.277 358.347 131.672 354.365 128.833 351.333C127.294 349.627 125.419 348.258 123.325 347.311C121.231 346.365 118.964 345.862 116.667 345.833C112.246 345.833 108.007 347.589 104.882 350.715C101.756 353.84 100 358.079 100 362.5C100 402.7777 100 443.0553 100 483.333C100 487.753 101.756 491.993 104.882 495.118C108.007 498.244 112.246 500 116.667 500C119.34 499.95 121.962 499.258 124.312 497.981C126.662 496.705 128.67 494.882 130.167 492.666C132.139 489.946 133.243 486.692 133.333 483.333C133.333 443.0553 133.333 402.7777 133.333 362.5Z"></path></svg> 