<?xml version="1.0" encoding="UTF-8"?> <svg xmlns="http://www.w3.org/2000/svg" width="600" height="600" viewBox="0 0 600 600" fill="none"><g clip-path="url(#clip0_100_54)"><rect width="600" height="600" fill="white"></rect><circle cx="300" cy="300" r="290" stroke="#225F35" stroke-width="20"></circle><path fill-rule="evenodd" clip-rule="evenodd" d="M373.112 227.081C371.142 225.769 369.178 226.421 367.866 228.399C367.866 228.399 375.076 190.987 369.83 174.568C358.005 133.222 260.225 122.063 260.225 147.663C218.212 159.481 226.082 198.864 231.98 229.065C231.98 229.065 228.705 225.117 224.763 229.065C220.828 233.652 225.422 245.471 227.386 250.717C228.698 255.318 229.35 257.934 230.662 260.571C230.662 260.571 230.662 261.231 230.662 261.883C230.662 265.818 232.633 269.093 234.624 269.093C244.458 306.505 273.993 337.359 300.246 337.359C324.535 337.359 354.063 306.505 363.924 269.093C365.895 269.093 367.859 265.811 367.859 261.883V261.224C368.512 258.587 370.476 255.963 371.794 250.71C373.112 246.116 379.018 231.022 373.112 227.081Z" fill="#E5CEC3"></path><path fill-rule="evenodd" clip-rule="evenodd" d="M348.173 332.772C352.76 335.388 358.014 338.018 362.621 339.982V378.046C362.621 378.705 362.621 378.705 362.621 378.705C354.072 380.676 348.173 387.9 348.173 396.422C348.173 406.936 356.063 414.806 365.904 414.806C376.39 414.806 384.287 406.936 384.287 396.422C384.287 388.553 379.02 381.995 371.809 379.358C372.462 379.358 372.462 378.705 372.462 378.046V345.222C440.075 376.075 474.198 367.546 474.198 466H302.225H300.255H125C125 361.641 160.455 376.075 231.33 342.598V358.365C208.353 360.988 189.99 380.669 189.99 404.958V447.616C189.99 450.906 192.613 452.87 195.236 452.87H211.656C214.279 452.87 216.243 450.906 216.243 447.616C216.243 444.993 214.279 443.029 211.656 443.029H199.83V404.958C199.83 383.959 216.902 367.546 237.256 367.546C258.242 367.546 274.661 383.966 274.661 404.958V443.029H264.168C261.552 443.029 259.56 445 259.56 447.616C259.56 450.906 261.552 452.87 264.168 452.87H279.907C282.531 452.87 284.522 450.906 284.522 447.616V404.958C284.522 380.017 265.487 360.336 241.198 358.365V338.011C244.473 336.04 248.408 334.076 251.691 332.099C266.139 341.946 282.538 347.845 300.261 347.845C317.326 347.852 333.725 341.946 348.173 332.772Z" fill="#225F35"></path></g><defs><clipPath id="clip0_100_54"><rect width="600" height="600" fill="white"></rect></clipPath></defs></svg> 